<svg width="35" height="33" viewBox="0 0 35 33" fill="none" xmlns="http://www.w3.org/2000/svg">
<g filter="url(#filter0_d)">
<path d="M6.53125 0.09375C5.19794 0.09375 4.09375 1.19794 4.09375 2.53125V24.4688C4.09375 25.8021 5.19794 26.9062 6.53125 26.9062H28.4688C29.8021 26.9062 30.9062 25.8021 30.9062 24.4688V2.53125C30.9062 1.19794 29.8021 0.09375 28.4688 0.09375H6.53125ZM6.53125 2.53125H28.4688V24.4688H22.1459V16.2422H25.3073L25.7643 12.5859H22.1471V10.224C22.1471 9.15881 22.4079 8.43487 23.9362 8.43487H25.9167V5.12109C25.5791 5.07844 24.4079 5.00653 23.0612 5.00653C20.2519 5.00653 18.3385 6.69694 18.3385 9.84375V12.5859H15.1393V16.2422H18.3373V24.4688H6.53125V2.53125Z" fill="#643B18"/>
</g>
<defs>
<filter id="filter0_d" x="0.09375" y="0.09375" width="34.8125" height="34.8125" filterUnits="userSpaceOnUse" color-interpolation-filters="sRGB">
<feFlood flood-opacity="0" result="BackgroundImageFix"/>
<feColorMatrix in="SourceAlpha" type="matrix" values="0 0 0 0 0 0 0 0 0 0 0 0 0 0 0 0 0 0 127 0" result="hardAlpha"/>
<feOffset dy="4"/>
<feGaussianBlur stdDeviation="2"/>
<feComposite in2="hardAlpha" operator="out"/>
<feColorMatrix type="matrix" values="0 0 0 0 0 0 0 0 0 0 0 0 0 0 0 0 0 0 0.25 0"/>
<feBlend mode="normal" in2="BackgroundImageFix" result="effect1_dropShadow"/>
<feBlend mode="normal" in="SourceGraphic" in2="effect1_dropShadow" result="shape"/>
</filter>
</defs>
</svg>
