<svg width="166" height="166" viewBox="0 0 166 166" fill="none" xmlns="http://www.w3.org/2000/svg">
<g filter="url(#filter0_d)">
<circle cx="83.1011" cy="72.4995" r="57.146" fill="white"/>
</g>
<path d="M114.453 58.1818C113.39 55.7185 111.856 53.4862 109.937 51.61C108.018 49.7282 105.754 48.2328 103.27 47.205C100.694 46.1351 97.9319 45.5874 95.1428 45.5938C91.2299 45.5938 87.4122 46.6653 84.0946 48.6892C83.3009 49.1734 82.5469 49.7051 81.8325 50.2845C81.1182 49.7051 80.3642 49.1734 79.5705 48.6892C76.2529 46.6653 72.4352 45.5938 68.5223 45.5938C65.7047 45.5938 62.9743 46.1335 60.3948 47.205C57.9026 48.2368 55.6565 49.721 53.7278 51.61C51.807 53.4841 50.2727 55.7169 49.2117 58.1818C48.1084 60.7454 47.5449 63.4678 47.5449 66.2696C47.5449 68.9126 48.0846 71.6667 49.1561 74.4684C50.053 76.8098 51.3388 79.2385 52.9817 81.691C55.585 85.5722 59.1646 89.6201 63.6093 93.7235C70.9748 100.525 78.2688 105.224 78.5784 105.415L80.4594 106.621C81.2928 107.153 82.3643 107.153 83.1977 106.621L85.0787 105.415C85.3883 105.216 92.6744 100.525 100.048 93.7235C104.493 89.6201 108.072 85.5722 110.675 81.691C112.318 79.2385 113.612 76.8098 114.501 74.4684C115.572 71.6667 116.112 68.9126 116.112 66.2696C116.12 63.4678 115.557 60.7454 114.453 58.1818ZM81.8325 100.343C81.8325 100.343 53.577 82.2387 53.577 66.2696C53.577 58.1818 60.2678 51.6259 68.5223 51.6259C74.3242 51.6259 79.3562 54.8642 81.8325 59.5946C84.3089 54.8642 89.3409 51.6259 95.1428 51.6259C103.397 51.6259 110.088 58.1818 110.088 66.2696C110.088 82.2387 81.8325 100.343 81.8325 100.343Z" fill="#C1BFBF" fill-opacity="0.8"/>
<path d="M95.142 51.626C89.3401 51.626 84.308 54.8643 81.8317 59.5947C79.3554 54.8643 74.3234 51.626 68.5214 51.626C60.267 51.626 53.5762 58.1819 53.5762 66.2696C53.5762 82.2388 81.8317 100.343 81.8317 100.343C81.8317 100.343 110.087 82.2388 110.087 66.2696C110.087 58.1819 103.396 51.626 95.142 51.626Z" fill="black" fill-opacity="0.1"/>
<defs>
<filter id="filter0_d" x="0.556849" y="0.114578" width="165.088" height="165.088" filterUnits="userSpaceOnUse" color-interpolation-filters="sRGB">
<feFlood flood-opacity="0" result="BackgroundImageFix"/>
<feColorMatrix in="SourceAlpha" type="matrix" values="0 0 0 0 0 0 0 0 0 0 0 0 0 0 0 0 0 0 127 0" result="hardAlpha"/>
<feOffset dy="10.1593"/>
<feGaussianBlur stdDeviation="12.6991"/>
<feColorMatrix type="matrix" values="0 0 0 0 1 0 0 0 0 0.352941 0 0 0 0 0.372549 0 0 0 0.08 0"/>
<feBlend mode="normal" in2="BackgroundImageFix" result="effect1_dropShadow"/>
<feBlend mode="normal" in="SourceGraphic" in2="effect1_dropShadow" result="shape"/>
</filter>
</defs>
</svg>
