<svg width="166" height="166" viewBox="0 0 166 166" fill="none" xmlns="http://www.w3.org/2000/svg">
<g filter="url(#filter0_d)">
<circle cx="83.3062" cy="72.4995" r="57.146" fill="white"/>
</g>
<path d="M114.657 58.1818C113.593 55.7185 112.059 53.4862 110.14 51.61C108.221 49.7282 105.957 48.2328 103.473 47.205C100.898 46.1351 98.135 45.5874 95.3459 45.5938C91.433 45.5938 87.6153 46.6653 84.2977 48.6892C83.504 49.1734 82.75 49.7051 82.0357 50.2845C81.3213 49.7051 80.5673 49.1734 79.7736 48.6892C76.456 46.6653 72.6383 45.5938 68.7254 45.5938C65.9078 45.5938 63.1775 46.1335 60.598 47.205C58.1058 48.2368 55.8596 49.721 53.9309 51.61C52.0102 53.4841 50.4758 55.7169 49.4148 58.1818C48.3116 60.7454 47.748 63.4678 47.748 66.2696C47.748 68.9126 48.2878 71.6667 49.3592 74.4684C50.2561 76.8098 51.5419 79.2385 53.1849 81.691C55.7882 85.5722 59.3677 89.6201 63.8124 93.7235C71.1779 100.525 78.472 105.224 78.7815 105.415L80.6626 106.621C81.4959 107.153 82.5674 107.153 83.4008 106.621L85.2819 105.415C85.5914 105.216 92.8775 100.525 100.251 93.7235C104.696 89.6201 108.275 85.5722 110.879 81.691C112.521 79.2385 113.815 76.8098 114.704 74.4684C115.776 71.6667 116.315 68.9126 116.315 66.2696C116.323 63.4678 115.76 60.7454 114.657 58.1818ZM82.0357 100.343C82.0357 100.343 53.7801 82.2387 53.7801 66.2696C53.7801 58.1818 60.471 51.6259 68.7254 51.6259C74.5273 51.6259 79.5593 54.8642 82.0357 59.5946C84.512 54.8642 89.544 51.6259 95.3459 51.6259C103.6 51.6259 110.291 58.1818 110.291 66.2696C110.291 82.2387 82.0357 100.343 82.0357 100.343Z" fill="#643B18"/>
<path d="M95.3461 51.626C89.5442 51.626 84.5121 54.8643 82.0358 59.5947C79.5595 54.8643 74.5275 51.626 68.7255 51.626C60.4711 51.626 53.7803 58.1819 53.7803 66.2696C53.7803 82.2388 82.0358 100.343 82.0358 100.343C82.0358 100.343 110.291 82.2388 110.291 66.2696C110.291 58.1819 103.6 51.626 95.3461 51.626Z" fill="#643B18"/>
<defs>
<filter id="filter0_d" x="0.761927" y="0.114578" width="165.088" height="165.088" filterUnits="userSpaceOnUse" color-interpolation-filters="sRGB">
<feFlood flood-opacity="0" result="BackgroundImageFix"/>
<feColorMatrix in="SourceAlpha" type="matrix" values="0 0 0 0 0 0 0 0 0 0 0 0 0 0 0 0 0 0 127 0" result="hardAlpha"/>
<feOffset dy="10.1593"/>
<feGaussianBlur stdDeviation="12.6991"/>
<feColorMatrix type="matrix" values="0 0 0 0 1 0 0 0 0 0.352941 0 0 0 0 0.372549 0 0 0 0.08 0"/>
<feBlend mode="normal" in2="BackgroundImageFix" result="effect1_dropShadow"/>
<feBlend mode="normal" in="SourceGraphic" in2="effect1_dropShadow" result="shape"/>
</filter>
</defs>
</svg>
