<svg width="28" height="27" viewBox="0 0 28 27" fill="none" xmlns="http://www.w3.org/2000/svg">
<path fill-rule="evenodd" clip-rule="evenodd" d="M7.95692 0.174187C9.40062 0.108375 9.86092 0.09375 13.5385 0.09375C17.216 0.09375 17.6763 0.109594 19.1188 0.174187C20.5612 0.238781 21.5458 0.466688 22.4074 0.796969C23.3095 1.13456 24.128 1.66228 24.8049 2.34478C25.4942 3.01388 26.0258 3.82313 26.3655 4.71769C26.7003 5.57081 26.9292 6.54581 26.9957 7.97175C27.0622 9.40378 27.0769 9.85959 27.0769 13.5C27.0769 17.1416 27.0609 17.5974 26.9957 19.027C26.9305 20.453 26.7003 21.428 26.3655 22.2811C26.0258 23.1758 25.4933 23.9864 24.8049 24.6564C24.128 25.3389 23.3095 25.8654 22.4074 26.2018C21.5458 26.5333 20.5612 26.76 19.1212 26.8258C17.6763 26.8916 17.216 26.9062 13.5385 26.9062C9.86092 26.9062 9.40062 26.8904 7.95692 26.8258C6.51692 26.7612 5.53231 26.5333 4.67077 26.2018C3.76729 25.8654 2.9487 25.338 2.272 24.6564C1.58324 23.9869 1.05023 23.1767 0.710154 22.2823C0.376615 21.4292 0.147692 20.4542 0.0812308 19.0282C0.0147692 17.5962 0 17.1404 0 13.5C0 9.85838 0.016 9.40256 0.0812308 7.97419C0.146462 6.54581 0.376615 5.57081 0.710154 4.71769C1.05074 3.82322 1.58415 3.01304 2.27323 2.34356C2.94897 1.66167 3.76674 1.13388 4.66954 0.796969C5.53108 0.466688 6.51569 0.24 7.95569 0.174187H7.95692ZM19.0092 2.58731C17.5815 2.52272 17.1532 2.50931 13.5385 2.50931C9.92369 2.50931 9.49539 2.52272 8.06769 2.58731C6.74708 2.64703 6.03077 2.86519 5.55323 3.04922C4.92185 3.29297 4.47015 3.58181 3.99631 4.05103C3.54713 4.48375 3.20145 5.01053 2.98462 5.59275C2.79877 6.06563 2.57846 6.77494 2.51815 8.08266C2.45292 9.49641 2.43938 9.92053 2.43938 13.5C2.43938 17.0795 2.45292 17.5036 2.51815 18.9173C2.57846 20.2251 2.79877 20.9344 2.98462 21.4073C3.20123 21.9886 3.54708 22.5163 3.99631 22.949C4.43323 23.3938 4.96615 23.7363 5.55323 23.9508C6.03077 24.1348 6.74708 24.353 8.06769 24.4127C9.49539 24.4773 9.92246 24.4907 13.5385 24.4907C17.1545 24.4907 17.5815 24.4773 19.0092 24.4127C20.3298 24.353 21.0462 24.1348 21.5237 23.9508C22.1551 23.707 22.6068 23.4182 23.0806 22.949C23.5298 22.5163 23.8757 21.9886 24.0923 21.4073C24.2782 20.9344 24.4985 20.2251 24.5588 18.9173C24.624 17.5036 24.6375 17.0795 24.6375 13.5C24.6375 9.92053 24.624 9.49641 24.5588 8.08266C24.4985 6.77494 24.2782 6.06563 24.0923 5.59275C23.8462 4.96753 23.5545 4.52025 23.0806 4.05103C22.6436 3.60627 22.1116 3.26398 21.5237 3.04922C21.0462 2.86519 20.3298 2.64703 19.0092 2.58731ZM11.8092 17.6328C12.775 18.0309 13.8503 18.0846 14.8516 17.7848C15.8529 17.485 16.718 16.8502 17.2992 15.989C17.8804 15.1277 18.1416 14.0934 18.0382 13.0626C17.9348 12.0318 17.4732 11.0686 16.7323 10.3373C16.26 9.86992 15.6889 9.51202 15.0601 9.2894C14.4313 9.06677 13.7605 8.98497 13.096 9.04988C12.4315 9.11478 11.7897 9.32478 11.217 9.66475C10.6443 10.0047 10.1548 10.4662 9.78376 11.016C9.41275 11.5658 9.16946 12.1902 9.0714 12.8443C8.97335 13.4983 9.02296 14.1658 9.21666 14.7986C9.41037 15.4314 9.74336 16.0138 10.1917 16.5039C10.64 16.994 11.1924 17.3795 11.8092 17.6328ZM8.61785 8.62744C9.26403 7.98756 10.0312 7.47999 10.8754 7.13369C11.7197 6.78739 12.6246 6.60916 13.5385 6.60916C14.4523 6.60916 15.3572 6.78739 16.2015 7.13369C17.0458 7.47999 17.8129 7.98756 18.4591 8.62744C19.1053 9.26731 19.6178 10.027 19.9676 10.863C20.3173 11.699 20.4973 12.5951 20.4973 13.5C20.4973 14.4049 20.3173 15.301 19.9676 16.137C19.6178 16.973 19.1053 17.7327 18.4591 18.3726C17.154 19.6648 15.3841 20.3908 13.5385 20.3908C11.6929 20.3908 9.92287 19.6648 8.61785 18.3726C7.31282 17.0803 6.57966 15.3276 6.57966 13.5C6.57966 11.6724 7.31282 9.91972 8.61785 8.62744ZM22.0406 7.63538C22.2007 7.4858 22.3289 7.30592 22.4176 7.10641C22.5063 6.90689 22.5536 6.69178 22.5568 6.47382C22.56 6.25586 22.519 6.03948 22.4363 5.83749C22.3535 5.63549 22.2307 5.452 22.075 5.29786C21.9194 5.14372 21.7341 5.02208 21.5301 4.94013C21.3261 4.85818 21.1076 4.8176 20.8875 4.82077C20.6674 4.82395 20.4501 4.87083 20.2486 4.95863C20.0472 5.04643 19.8655 5.17337 19.7145 5.33194C19.4207 5.64032 19.2599 6.04993 19.2661 6.47382C19.2723 6.89771 19.4452 7.30251 19.7479 7.60228C20.0506 7.90205 20.4594 8.07318 20.8875 8.07936C21.3155 8.08554 21.7292 7.92628 22.0406 7.63538Z" fill="#643B18"/>
</svg>
