<svg width="30" height="30" viewBox="0 0 30 30" fill="none" xmlns="http://www.w3.org/2000/svg">
<path d="M17.1588 8.4375C16.8253 8.43753 16.4951 8.50442 16.1879 8.6342C15.8807 8.76399 15.6026 8.95404 15.37 9.19312L15.0016 9.57281L14.6294 9.19312C14.3969 8.95409 14.1187 8.76409 13.8115 8.63435C13.5043 8.50461 13.1742 8.43776 12.8407 8.43776C12.5072 8.43776 12.177 8.50461 11.8698 8.63435C11.5626 8.76409 11.2845 8.95409 11.0519 9.19312C10.5777 9.68278 10.3125 10.3377 10.3125 11.0194C10.3125 11.701 10.5777 12.356 11.0519 12.8456L15.0016 16.875L18.9475 12.8456C19.4218 12.356 19.687 11.701 19.687 11.0194C19.687 10.3377 19.4218 9.68278 18.9475 9.19312C18.715 8.95404 18.4369 8.76399 18.1297 8.6342C17.8224 8.50442 17.4923 8.43753 17.1588 8.4375Z" fill="#643B18"/>
<path d="M15 28.125L7.09126 18.7978C6.98137 18.6578 6.87261 18.5168 6.76501 18.375C5.41406 16.5954 4.68424 14.4218 4.68751 12.1875C4.68751 9.45246 5.774 6.82943 7.70797 4.89546C9.64194 2.96149 12.265 1.875 15 1.875C17.7351 1.875 20.3581 2.96149 22.292 4.89546C24.226 6.82943 25.3125 9.45246 25.3125 12.1875C25.3158 14.4208 24.5863 16.5934 23.2359 18.3722L23.235 18.375C23.235 18.375 22.9538 18.7444 22.9116 18.7941L15 28.125ZM8.26126 17.2453C8.26314 17.2453 8.48064 17.5341 8.53032 17.5959L15 25.2263L21.4781 17.5856C21.5194 17.5341 21.7388 17.2434 21.7397 17.2425C22.8433 15.7885 23.4397 14.0128 23.4375 12.1875C23.4375 9.94974 22.5486 7.80362 20.9662 6.22129C19.3839 4.63895 17.2378 3.75 15 3.75C12.7622 3.75 10.6161 4.63895 9.0338 6.22129C7.45146 7.80362 6.56251 9.94974 6.56251 12.1875C6.56054 14.014 7.15668 15.7907 8.26126 17.2453Z" fill="#643B18"/>
</svg>
