<svg width="40" height="40" viewBox="0 0 40 40" fill="none" xmlns="http://www.w3.org/2000/svg">
<path d="M22.8784 11.25C22.4337 11.25 21.9935 11.3392 21.5839 11.5123C21.1742 11.6853 20.8034 11.9387 20.4934 12.2575L20.0021 12.7638L19.5059 12.2575C19.1958 11.9388 18.825 11.6854 18.4154 11.5125C18.0057 11.3395 17.5656 11.2504 17.1209 11.2504C16.6762 11.2504 16.2361 11.3395 15.8264 11.5125C15.4168 11.6854 15.046 11.9388 14.7359 12.2575C14.1036 12.9104 13.75 13.7836 13.75 14.6925C13.75 15.6014 14.1036 16.4746 14.7359 17.1275L20.0021 22.5L25.2634 17.1275C25.8957 16.4746 26.2493 15.6014 26.2493 14.6925C26.2493 13.7836 25.8957 12.9104 25.2634 12.2575C24.9533 11.9387 24.5825 11.6853 24.1729 11.5123C23.7633 11.3392 23.3231 11.25 22.8784 11.25Z" fill="#767676"/>
<path d="M20 37.5L9.45501 25.0638C9.30849 24.877 9.16349 24.6891 9.02001 24.5C7.21874 22.1272 6.24565 19.229 6.25001 16.25C6.25001 12.6033 7.69867 9.10591 10.2773 6.52728C12.8559 3.94866 16.3533 2.5 20 2.5C23.6467 2.5 27.1441 3.94866 29.7227 6.52728C32.3014 9.10591 33.75 12.6033 33.75 16.25C33.7544 19.2277 32.7817 22.1246 30.9813 24.4963L30.98 24.5C30.98 24.5 30.605 24.9925 30.5488 25.0588L20 37.5ZM11.015 22.9938C11.0175 22.9938 11.3075 23.3787 11.3738 23.4612L20 33.635L28.6375 23.4475C28.6925 23.3787 28.985 22.9913 28.9863 22.99C30.4577 21.0514 31.2529 18.6838 31.25 16.25C31.25 13.2663 30.0647 10.4048 27.955 8.29505C25.8452 6.18526 22.9837 5 20 5C17.0163 5 14.1548 6.18526 12.0451 8.29505C9.93528 10.4048 8.75001 13.2663 8.75001 16.25C8.74739 18.6853 9.54349 21.0543 11.0163 22.9938H11.015Z" fill="#767676"/>
</svg>
