<svg width="23" height="24" viewBox="0 0 23 24" fill="none" xmlns="http://www.w3.org/2000/svg">
<path d="M14.189 8.91C16.334 8.91 17.654 5.775 17.654 3.795C17.654 2.145 16.829 0.165 15.179 0.165C13.034 0.165 11.714 3.3 11.714 5.28C11.714 6.93 12.539 8.91 14.189 8.91ZM7.91903 8.91C9.56903 8.91 10.394 6.93 10.394 5.28C10.394 3.135 9.07403 0 6.92902 0C5.27902 0 4.45402 1.98 4.45402 3.63C4.28902 5.775 5.60903 8.91 7.91903 8.91ZM20.129 7.26C17.984 7.26 16.499 10.23 16.499 12.375C16.499 13.86 17.159 15.345 18.644 15.345C20.789 15.345 22.274 12.375 22.274 10.23C22.274 8.745 21.449 7.26 20.129 7.26ZM5.77402 12.375C5.77402 10.23 4.12402 7.26 2.14402 7.26C0.659024 7.26 -0.000976562 8.745 -0.000976562 10.23C-0.000976562 12.375 1.64902 15.345 3.62902 15.345C5.11402 15.345 5.77402 13.86 5.77402 12.375ZM11.054 12.045C7.75402 12.045 3.29902 17.325 3.29902 20.955C3.29902 22.605 4.45402 23.1 5.77402 23.1C7.75403 23.1 9.23903 21.78 11.054 21.78C12.704 21.78 14.189 23.1 16.004 23.1C17.324 23.1 18.809 22.77 18.809 20.955C18.809 17.325 14.354 12.045 11.054 12.045Z" fill="#643B18"/>
</svg>
