<svg width="34" height="36" viewBox="0 0 34 36" fill="none" xmlns="http://www.w3.org/2000/svg">
<path d="M21.6593 13.7816C24.9333 13.7816 26.9481 9.04248 26.9481 6.04934C26.9481 3.55506 25.6889 0.561928 23.1704 0.561928C19.8963 0.561928 17.8815 5.30106 17.8815 8.2942C17.8815 10.7885 19.1407 13.7816 21.6593 13.7816ZM12.0889 13.7816C14.6074 13.7816 15.8667 10.7885 15.8667 8.2942C15.8667 5.05163 13.8519 0.3125 10.5778 0.3125C8.05926 0.3125 6.8 3.30564 6.8 5.79992C6.54815 9.04248 8.56296 13.7816 12.0889 13.7816ZM30.7259 11.2873C27.4519 11.2873 25.1852 15.777 25.1852 19.0196C25.1852 21.2645 26.1926 23.5093 28.4593 23.5093C31.7333 23.5093 34 19.0196 34 15.777C34 13.5322 32.7407 11.2873 30.7259 11.2873ZM8.81482 19.0196C8.81482 15.777 6.2963 11.2873 3.27407 11.2873C1.00741 11.2873 0 13.5322 0 15.777C0 19.0196 2.51852 23.5093 5.54074 23.5093C7.80741 23.5093 8.81482 21.2645 8.81482 19.0196ZM16.8741 18.5207C11.837 18.5207 5.03704 26.5024 5.03704 31.9899C5.03704 34.4841 6.8 35.2324 8.81482 35.2324C11.837 35.2324 14.1037 33.237 16.8741 33.237C19.3926 33.237 21.6593 35.2324 24.4296 35.2324C26.4444 35.2324 28.7111 34.7336 28.7111 31.9899C28.7111 26.5024 21.9111 18.5207 16.8741 18.5207Z" fill="#643B18"/>
</svg>
