<svg width="36" height="33" viewBox="0 0 36 33" fill="none" xmlns="http://www.w3.org/2000/svg">
<path d="M21.2926 13.8592C23.6188 13.8592 25.0503 10.7242 25.0503 8.74422C25.0503 7.09422 24.1556 5.11422 22.3662 5.11422C20.0401 5.11422 18.6086 8.24922 18.6086 10.2292C18.6086 11.8792 19.5033 13.8592 21.2926 13.8592ZM14.4931 13.8592C16.2825 13.8592 17.1772 11.8792 17.1772 10.2292C17.1772 8.08422 15.7457 4.94922 13.4195 4.94922C11.6302 4.94922 10.7355 6.92922 10.7355 8.57922C10.5566 10.7242 11.9881 13.8592 14.4931 13.8592ZM27.7343 12.2092C25.4081 12.2092 23.7977 15.1792 23.7977 17.3242C23.7977 18.8092 24.5135 20.2942 26.1239 20.2942C28.45 20.2942 30.0604 17.3242 30.0604 15.1792C30.0604 13.6942 29.1657 12.2092 27.7343 12.2092ZM12.167 17.3242C12.167 15.1792 10.3777 12.2092 8.23044 12.2092C6.62003 12.2092 5.9043 13.6942 5.9043 15.1792C5.9043 17.3242 7.69364 20.2942 9.84085 20.2942C11.4513 20.2942 12.167 18.8092 12.167 17.3242ZM17.8929 16.9942C14.3142 16.9942 9.48298 22.2742 9.48298 25.9042C9.48298 27.5542 10.7355 28.0492 12.167 28.0492C14.3142 28.0492 15.9246 26.7292 17.8929 26.7292C19.6822 26.7292 21.2926 28.0492 23.2609 28.0492C24.6924 28.0492 26.3028 27.7192 26.3028 25.9042C26.3028 22.2742 21.4716 16.9942 17.8929 16.9942Z" fill="#C1BFBF"/>
</svg>
