<svg width="14" height="13" viewBox="0 0 14 13" fill="none" xmlns="http://www.w3.org/2000/svg">
<path d="M8.9514 4.91666C10.1781 4.91666 10.933 3.20528 10.933 2.12441C10.933 1.22368 10.4612 0.142807 9.51756 0.142807C8.29088 0.142807 7.53599 1.85419 7.53599 2.93506C7.53599 3.83579 8.0078 4.91666 8.9514 4.91666ZM5.36571 4.91666C6.30931 4.91666 6.78111 3.83579 6.78111 2.93506C6.78111 1.76412 6.02623 0.0527344 4.79955 0.0527344C3.85595 0.0527344 3.38415 1.13361 3.38415 2.03433C3.28979 3.20528 4.04467 4.91666 5.36571 4.91666ZM12.3484 4.01593C11.1217 4.01593 10.2724 5.63724 10.2724 6.80819C10.2724 7.61884 10.6499 8.4295 11.4991 8.4295C12.7258 8.4295 13.575 6.80819 13.575 5.63724C13.575 4.82659 13.1032 4.01593 12.3484 4.01593ZM4.13903 6.80819C4.13903 5.63724 3.19543 4.01593 2.06311 4.01593C1.21387 4.01593 0.836426 4.82659 0.836426 5.63724C0.836426 6.80819 1.78003 8.4295 2.91235 8.4295C3.76159 8.4295 4.13903 7.61884 4.13903 6.80819ZM7.15855 6.62804C5.27135 6.62804 2.72363 9.51037 2.72363 11.492C2.72363 12.3927 3.38415 12.6629 4.13903 12.6629C5.27135 12.6629 6.12059 11.9423 7.15855 11.9423C8.10216 11.9423 8.9514 12.6629 9.98936 12.6629C10.7442 12.6629 11.5935 12.4828 11.5935 11.492C11.5935 9.51037 9.04576 6.62804 7.15855 6.62804Z" fill="black"/>
</svg>
