<svg width="46" height="46" viewBox="0 0 46 46" fill="none" xmlns="http://www.w3.org/2000/svg">
<circle cx="22.5" cy="22.5" r="22.5" fill="white"/>
<path d="M22.75 0C10.206 0 0 10.206 0 22.75C0 35.294 10.206 45.5 22.75 45.5C35.294 45.5 45.5 35.294 45.5 22.75C45.5 10.206 35.294 0 22.75 0ZM22.75 3.5C33.4022 3.5 42 12.0977 42 22.75C42 33.4022 33.4022 42 22.75 42C12.0977 42 3.5 33.4022 3.5 22.75C3.5 12.0977 12.0977 3.5 22.75 3.5ZM16.135 13.615L13.615 16.135L20.237 22.75L13.6185 29.365L16.1385 31.885L22.75 25.2648L29.365 31.8797L31.885 29.365L25.2648 22.75L31.8797 16.135L29.365 13.615L22.75 20.237L16.135 13.6185V13.615Z" fill="#643B18"/>
</svg>
